<svg width="14" height="13" viewBox="0 0 14 13" fill="none" xmlns="http://www.w3.org/2000/svg">
<g id="Combined Shape 2">
<path id="Combined Shape" fill-rule="evenodd" clip-rule="evenodd" d="M3.46447 0.843637C2.87868 0.25785 1.92893 0.25785 1.34315 0.843637C0.757362 1.42942 0.757362 2.37917 1.34315 2.96496L4.87868 6.50049L1.34315 10.036C0.757362 10.6218 0.757362 11.5716 1.34315 12.1573C1.92893 12.7431 2.87868 12.7431 3.46447 12.1573L7 8.62181L10.5355 12.1573C11.1213 12.7431 12.0711 12.7431 12.6569 12.1573C13.2426 11.5716 13.2426 10.6218 12.6569 10.036L9.12132 6.50049L12.6569 2.96496C13.2426 2.37917 13.2426 1.42942 12.6569 0.843637C12.0711 0.257851 11.1213 0.257851 10.5355 0.843637L7 4.37917L3.46447 0.843637Z" fill="#333D4B"/>
</g>
</svg>
